<mxfile host="65bd71144e">
    <diagram id="sample-class-diagram" name="样本信息管理系统类图">
        <mxGraphModel dx="2445" dy="890" grid="1" gridSize="10" guides="1" tooltips="1" connect="1" arrows="1" fold="1" page="1" pageScale="1" pageWidth="827" pageHeight="1169" math="0" shadow="0">
            <root>
                <mxCell id="0"/>
                <mxCell id="1" parent="0"/>
                <mxCell id="SampleInfo" value="样本信息&#10;--&#10;- sampleId: String&#10;- sampleType: String&#10;- sampleCode: String&#10;- donorInfo: DonorInfo&#10;- consentForm: ConsentForm&#10;- collectionGroup: CollectionGroup&#10;- codeGenerationRule: CodeRule&#10;--&#10;+ generateSampleCode()&#10;+ maskSensitiveData()&#10;+ saveSampleInfo()&#10;+ getSampleStatus()&#10;+ validateMaskingResult()  // 添加验证脱敏结果方法" style="swimlane;fontStyle=1;align=center;verticalAlign=top;childLayout=stackLayout;horizontal=1;startSize=130;horizontalStack=0;resizeParent=1;resizeParentMax=0;resizeLast=0;collapsible=1;marginBottom=0;" parent="1" vertex="1">
                    <mxGeometry x="260" y="10" width="280" height="260" as="geometry"/>
                </mxCell>
                <mxCell id="DonorInfo" value="捐献者信息&#10;--&#10;- donorId: String&#10;- name: String&#10;- age: int&#10;- gender: String&#10;- medicalHistory: String&#10;--&#10;+ maskPersonalInfo()&#10;+ updateDonorInfo()&#10;+ getDonorDetails()" style="swimlane;fontStyle=1;align=center;verticalAlign=top;childLayout=stackLayout;horizontal=1;startSize=130;horizontalStack=0;resizeParent=1;resizeParentMax=0;resizeLast=0;collapsible=1;marginBottom=0;" parent="1" vertex="1">
                    <mxGeometry x="-30" width="200" height="200" as="geometry"/>
                </mxCell>
                <mxCell id="ConsentForm" value="知情同意书&#10;--&#10;- formId: String&#10;- sampleId: String&#10;- formFile: File&#10;- uploadDate: Date&#10;- description: String&#10;--&#10;+ uploadForm()&#10;+ validateForm()&#10;+ getFormInfo()" style="swimlane;fontStyle=1;align=center;verticalAlign=top;childLayout=stackLayout;horizontal=1;startSize=130;horizontalStack=0;resizeParent=1;resizeParentMax=0;resizeLast=0;collapsible=1;marginBottom=0;" parent="1" vertex="1">
                    <mxGeometry x="600" y="140" width="200" height="200" as="geometry"/>
                </mxCell>
                <mxCell id="CollectionProcess" value="采集流程&#10;--&#10;- processId: String&#10;- sampleId: String&#10;- status: String&#10;- startTime: Date&#10;- endTime: Date&#10;--&#10;+ updateStatus()&#10;+ generateReport()&#10;+ getProcessDetails()" style="swimlane;fontStyle=1;align=center;verticalAlign=top;childLayout=stackLayout;horizontal=1;startSize=130;horizontalStack=0;resizeParent=1;resizeParentMax=0;resizeLast=0;collapsible=1;marginBottom=0;" parent="1" vertex="1">
                    <mxGeometry x="300" y="560" width="200" height="200" as="geometry"/>
                </mxCell>
                <mxCell id="SampleStorage" value="样本存储&#10;--&#10;- storageId: String&#10;- sampleId: String&#10;- location: String&#10;- status: String&#10;- operationLog: List&lt;Log&gt;&#10;--&#10;+ storeIn()&#10;+ storeOut()&#10;+ updateLocation()&#10;+ getStorageInfo()" style="swimlane;fontStyle=1;align=center;verticalAlign=top;childLayout=stackLayout;horizontal=1;startSize=130;horizontalStack=0;resizeParent=1;resizeParentMax=0;resizeLast=0;collapsible=1;marginBottom=0;" parent="1" vertex="1">
                    <mxGeometry x="570" y="550" width="240" height="220" as="geometry"/>
                </mxCell>
                <mxCell id="CodeRule" value="编码规则&#10;--&#10;- ruleId: String&#10;- prefix: String&#10;- format: String&#10;- autoNumberingRule: String&#10;- desensitizationEnabled: boolean&#10;- maskingRules: List&lt;DesensitizationRule&gt;&#10;--&#10;+ setCodeFormat()&#10;+ setMaskingRules()&#10;+ generateCode()&#10;+ testCodeGeneration()&#10;+ validateCodeFormat()" style="swimlane;fontStyle=1;align=center;verticalAlign=top;childLayout=stackLayout;horizontal=1;startSize=130;horizontalStack=0;resizeParent=1;resizeParentMax=0;resizeLast=0;collapsible=1;marginBottom=0;" parent="1" vertex="1">
                    <mxGeometry x="20" y="310" width="200" height="240" as="geometry"/>
                </mxCell>
                <mxCell id="DesensitizationRule" value="数据脱敏规则&#10;--&#10;- ruleId: String&#10;- fieldName: String&#10;- maskingType: String&#10;- maskingPattern: String&#10;+ testData: String  // 添加测试数据字段&#10;+ lastTestResult: Boolean  // 添加测试结果字段&#10;--&#10;+ applyMask()&#10;+ validateRule()&#10;+ testMaskingEffect()  // 添加测试脱敏效果方法&#10;+ saveMaskingConfig()  // 添加保存配置方法" style="swimlane;fontStyle=1;align=center;verticalAlign=top;childLayout=stackLayout;horizontal=1;startSize=130;horizontalStack=0;resizeParent=1;resizeParentMax=0;resizeLast=0;collapsible=1;marginBottom=0;" vertex="1" parent="1">
                    <mxGeometry x="310" y="330" width="280" height="200" as="geometry"/>
                </mxCell>
                <mxCell id="rel7" value="1..n" style="endArrow=open;html=1;endSize=12;startArrow=diamondThin;startSize=14;startFill=1;edgeStyle=orthogonalEdgeStyle;align=left;verticalAlign=bottom;exitX=1;exitY=0.5;exitDx=0;exitDy=0;entryX=0;entryY=0.5;entryDx=0;entryDy=0;" edge="1" parent="1" source="CodeRule" target="DesensitizationRule">
                    <mxGeometry x="-1" y="3" relative="1" as="geometry"/>
                </mxCell>
                <mxCell id="rel1" value="1" style="endArrow=open;html=1;endSize=12;startArrow=diamondThin;startSize=14;startFill=1;edgeStyle=orthogonalEdgeStyle;align=left;verticalAlign=bottom;exitX=0;exitY=0.5;exitDx=0;exitDy=0;entryX=1;entryY=0.5;entryDx=0;entryDy=0;" parent="1" source="SampleInfo" target="DonorInfo" edge="1">
                    <mxGeometry x="-1" y="3" relative="1" as="geometry"/>
                </mxCell>
                <mxCell id="rel2" value="1" style="endArrow=open;html=1;endSize=12;startArrow=diamondThin;startSize=14;startFill=1;edgeStyle=orthogonalEdgeStyle;align=left;verticalAlign=bottom;exitX=1;exitY=0.5;exitDx=0;exitDy=0;entryX=0;entryY=0.5;entryDx=0;entryDy=0;" parent="1" source="SampleInfo" target="ConsentForm" edge="1">
                    <mxGeometry x="-1" y="3" relative="1" as="geometry"/>
                </mxCell>
                <mxCell id="rel3" value="1" style="endArrow=open;html=1;endSize=12;startArrow=diamondThin;startSize=14;startFill=0;edgeStyle=orthogonalEdgeStyle;align=left;verticalAlign=bottom;exitX=0.5;exitY=1;exitDx=0;exitDy=0;entryX=0.5;entryY=0;entryDx=0;entryDy=0;" parent="1" source="SampleInfo" target="CollectionProcess" edge="1">
                    <mxGeometry x="-1" y="3" relative="1" as="geometry"/>
                </mxCell>
                <mxCell id="rel4" value="1..*" style="endArrow=open;html=1;endSize=12;startArrow=diamondThin;startSize=14;startFill=0;edgeStyle=orthogonalEdgeStyle;align=left;verticalAlign=bottom;exitX=1;exitY=0.5;exitDx=0;exitDy=0;entryX=0;entryY=0.5;entryDx=0;entryDy=0;" parent="1" source="CollectionGroup" target="CollectionProcess" edge="1">
                    <mxGeometry x="-1" y="3" relative="1" as="geometry"/>
                </mxCell>
                <mxCell id="rel5" value="1" style="endArrow=open;html=1;endSize=12;startArrow=diamondThin;startSize=14;startFill=0;edgeStyle=orthogonalEdgeStyle;align=left;verticalAlign=bottom;exitX=1;exitY=0.5;exitDx=0;exitDy=0;entryX=0;entryY=0.5;entryDx=0;entryDy=0;" parent="1" source="CollectionProcess" target="SampleStorage" edge="1">
                    <mxGeometry x="-1" y="3" relative="1" as="geometry"/>
                </mxCell>
                <mxCell id="rel6" value="1..*" style="endArrow=open;html=1;endSize=12;startArrow=diamondThin;startSize=14;startFill=0;edgeStyle=orthogonalEdgeStyle;align=left;verticalAlign=bottom;exitX=0.5;exitY=0;exitDx=0;exitDy=0;entryX=0;entryY=0.75;entryDx=0;entryDy=0;" parent="1" source="CodeRule" target="SampleInfo" edge="1">
                    <mxGeometry x="-1" y="3" relative="1" as="geometry"/>
                </mxCell>
                <mxCell id="CollectionGroup" value="采集管分组&#10;--&#10;- groupId: String&#10;- groupName: String&#10;- groupType: String&#10;- tubeList: List&lt;String&gt;&#10;--&#10;+ addTube()&#10;+ removeTube()&#10;+ getGroupInfo()" style="swimlane;fontStyle=1;align=center;verticalAlign=top;childLayout=stackLayout;horizontal=1;startSize=130;horizontalStack=0;resizeParent=1;resizeParentMax=0;resizeLast=0;collapsible=1;marginBottom=0;" parent="1" vertex="1">
                    <mxGeometry x="20" y="690" width="200" height="200" as="geometry"/>
                </mxCell>
            </root>
        </mxGraphModel>
    </diagram>
</mxfile>